<svg xmlns="http://www.w3.org/2000/svg" width="306.388" height="265.001" viewBox="0 0 306.388 265.001"><defs><style>.cls-1{fill:#fff;}.cls-2{fill:#fcdc4a;}.cls-3{fill:#211715;}</style></defs><g id="mono"><g id="colors"><path class="cls-1" d="M304.371,183.345c-.017-11.951-.078-36.41-.078-45.104,0,0,0-.121.007-.356-53.899-31.01-135.062-77.919-171.922-99.254C101.165,56.69,38.346,92.988,2.005,113.865c-.003,10.138.074,40.174.068,49.085,33.15,19.195,119.957,69.372,173.325,100.059,37.885-21.778,99.829-57.575,128.978-74.447v-.459c0-1.163-.002-2.791-.004-4.757Z"></path><path class="cls-1" d="M262.202,110.034c-.013-8.922-.058-27.182-.058-33.672,0,0,0-.091.005-.266C221.91,52.945,161.318,17.925,133.799,1.997c-23.302,13.482-70.199,40.581-97.33,56.166-.003,7.568.055,29.992.051,36.644,24.748,14.33,89.554,51.79,129.396,74.699,28.283-16.259,74.528-42.983,96.289-55.579v-.343c0-.868-.001-2.084-.003-3.552Z"></path><g id="yellow"><path class="cls-2" d="M249.375,225.972c-4.618,2.652-19.594,11.305-26.406,15.226-6.573-3.775-18.231-10.494-26.936-15.517,8.226-4.732,17.274-9.942,26.426-15.226,8.934,5.158,20.665,11.929,26.915,15.517Z" style="fill: rgb(112, 218, 157);"></path><path class="cls-2" d="M262.205,113.634v.294c-21.761,12.596-68.005,39.32-96.289,55.579-39.842-22.909-104.648-60.369-129.396-74.699,0-.247,0-.523,0-.812-12.522,7.218-24.279,13.988-34.122,19.643,27.372,15.853,126.347,73.071,172.227,99.385,33.505-19.199,106.859-61.578,129.669-74.783,0,0,0-.121.007-.356-12.811-7.371-27.164-15.641-42.095-24.251Z" style="fill: rgb(112, 218, 157);"></path><path class="cls-2" d="M132.053,3.007c-23.831,13.786-69.115,39.951-95.584,55.156-.003,7.568.055,29.992.051,36.644,10.763,6.232,29.102,16.839,49.67,28.721-.015-9.132-.054-29.307-.058-36.983,41.833-24.165,77.077-44.544,96.955-56.052-19.693-11.377-37.516-21.684-49.287-28.497-.568.329-1.15.666-1.746,1.01Z" style="fill: rgb(112, 218, 157);"></path></g></g><g id="border"><path class="cls-3" d="M261.191,115.36c14.032,8.086,28.063,16.174,42.1,24.25l-.991-1.727c-.188,5.813.003,11.662.014,17.477.014,7.291.03,14.581.044,21.872.007,3.777.021,7.554.021,11.331l.991-1.727c-14.842,8.594-29.691,17.174-44.542,25.752-5.112,2.953-10.225,5.906-15.338,8.858-2.229,1.287-.217,4.745,2.019,3.454,16.688-9.636,33.374-19.275,50.054-28.924,3.14-1.816,6.326-3.571,9.426-5.455,1.015-.617,1.365-1.242,1.39-2.418.022-1.042-.006-2.087-.008-3.128-.004-1.645-.005-3.29-.008-4.935-.013-7.177-.029-14.355-.044-21.532-.014-6.862-.243-13.766-.02-20.625.022-.694-.396-1.385-.991-1.727-14.037-8.076-28.068-16.164-42.1-24.25-2.234-1.288-4.251,2.167-2.019,3.454h0Z"></path><path class="cls-3" d="M218.12,236.403c-.975,0-1.917.791-2.737,1.264-.997.575-1.995,1.151-2.992,1.726-1.974,1.139-3.947,2.277-5.921,3.416-3.767,2.173-7.533,4.345-11.301,6.516-6.924,3.991-13.849,7.98-20.779,11.961h2.019c-11.479-6.601-22.953-13.21-34.425-19.823-12.73-7.338-25.457-14.68-38.183-22.025-12.686-7.323-25.371-14.648-38.054-21.976-11.348-6.556-22.695-13.114-34.04-19.675-8.714-5.039-17.428-10.079-26.14-15.121-.829-.48-1.658-.96-2.488-1.44l.991,1.727c.014-13.298-.039-26.596-.06-39.895-.005-3.065-.01-6.13-.01-9.195l-.991,1.727c11.512-6.615,23.019-13.236,34.52-19.87,2.229-1.286.217-4.744-2.019-3.454-11.501,6.634-23.008,13.255-34.52,19.87C.381,112.486,0,113.162,0,113.863c0,16.101.079,32.203.071,48.304,0,1.11.129,1.954,1.156,2.609.665.424,1.373.795,2.056,1.19,1.362.789,2.725,1.577,4.087,2.365,3.068,1.775,6.135,3.55,9.203,5.325,7.441,4.304,14.883,8.607,22.325,12.909,18.213,10.528,36.428,21.052,54.646,31.57,18.824,10.868,37.651,21.73,56.485,32.581,4.339,2.5,8.679,4.999,13.019,7.498,2.064,1.188,4.128,2.376,6.192,3.563.912.524,1.823,1.049,2.735,1.573,1.073.617,2.666,1.946,3.957,1.591,1.257-.346,2.488-1.357,3.615-2.005,1.446-.831,2.891-1.663,4.336-2.494,2.786-1.603,5.571-3.207,8.355-4.811,5.908-3.404,11.815-6.811,17.722-10.218,3.053-1.761,6.106-3.522,9.159-5.284l-1.009.273h.01c2.574,0,2.578-4,0-4h0Z"></path><path class="cls-3" d="M173.023,212.89c0,13.824.048,27.648.072,41.472.005,2.796.01,5.593.01,8.389,0,2.574,4,2.578,4,0,0-13.498-.05-26.997-.072-40.495-.005-3.122-.01-6.244-.01-9.366,0-2.574-4-2.578-4,0h0Z"></path><path class="cls-3" d="M3.383,116.512c8.073,4.678,16.149,9.351,24.226,14.023,11.359,6.571,22.721,13.138,34.083,19.703,12.899,7.453,25.8,14.903,38.703,22.349,12.692,7.325,25.387,14.646,38.085,21.96,10.739,6.186,21.48,12.368,32.229,18.536,1.102.632,2.204,1.264,3.306,1.896,2.237,1.283,4.254-2.172,2.019-3.454-10.389-5.957-20.769-11.929-31.147-17.904-12.552-7.228-25.101-14.463-37.647-21.702-12.972-7.485-25.942-14.973-38.91-22.465-11.646-6.728-23.291-13.459-34.935-20.193-8.575-4.96-17.15-9.92-25.722-14.886-.758-.439-1.515-.878-2.273-1.317-2.232-1.293-4.248,2.162-2.019,3.454h0Z"></path><path class="cls-3" d="M175.045,228.013c-8.961-5.138-17.914-10.289-26.865-15.444-10.918-6.287-21.832-12.58-32.745-18.877-11.255-6.494-22.508-12.991-33.759-19.491-10.157-5.868-20.313-11.737-30.468-17.609-7.445-4.305-14.889-8.611-22.331-12.92-.662-.383-1.324-.767-1.985-1.15-2.232-1.293-4.248,2.163-2.019,3.454,7.006,4.058,14.014,8.112,21.023,12.166,9.906,5.729,19.814,11.456,29.723,17.181,11.193,6.467,22.387,12.931,33.584,19.393,11.044,6.373,22.089,12.743,33.138,19.108,9.271,5.34,18.543,10.677,27.822,16.002.954.548,1.908,1.095,2.863,1.642,2.237,1.283,4.254-2.172,2.019-3.454h0Z"></path><path class="cls-3" d="M164.068,237.893c-8.679-4.977-17.339-9.987-25.997-15.001-2.232-1.293-4.248,2.163-2.019,3.454,8.658,5.014,17.318,10.024,25.997,15.001,2.237,1.283,4.254-2.172,2.019-3.454h0Z"></path><path class="cls-3" d="M196.034,227.681h.01l-1.009-.273c8.364,4.836,16.736,9.66,25.113,14.475.769.442,1.667,1.159,2.556,1.279.997.135,1.927-.613,2.756-1.09,1.577-.908,3.153-1.817,4.73-2.727,3.584-2.068,7.168-4.136,10.753-6.204,3.147-1.816,6.292-3.633,9.443-5.442,1.298-.745,1.298-2.709,0-3.454-8.981-5.156-17.947-10.338-26.915-15.517-2.233-1.29-4.25,2.166-2.019,3.454,8.968,5.178,17.934,10.361,26.915,15.517v-3.454c-8.81,5.061-17.6,10.157-26.406,15.226h2.019c-4.402-2.529-8.802-5.061-13.2-7.596-2.466-1.421-4.931-2.842-7.396-4.265-1.224-.706-2.448-1.413-3.672-2.12-1.027-.593-2.463-1.809-3.677-1.809-2.574,0-2.578,4,0,4h0Z"></path><path class="cls-3" d="M286.763,171.007c-12.305,7.126-24.617,14.238-36.931,21.348-16.561,9.562-33.124,19.12-49.699,28.659-8.571,4.933-17.139,9.871-25.721,14.785-2.234,1.279-.221,4.736,2.019,3.454,15.839-9.068,31.645-18.196,47.457-27.312,15.654-9.025,31.304-18.057,46.948-27.099,5.983-3.458,11.966-6.918,17.947-10.381,2.227-1.29.215-4.748-2.019-3.454h0Z"></path><path class="cls-3" d="M175.854,214.625c17.38-9.96,34.734-19.966,52.086-29.973,18.712-10.79,37.418-21.591,56.119-32.399,7.082-4.093,14.164-8.187,21.243-12.285,2.227-1.289.215-4.747-2.019-3.454-14.775,8.553-29.558,17.092-44.342,25.629-19.427,11.218-38.858,22.429-58.3,33.622-8.932,5.142-17.865,10.281-26.807,15.406-2.233,1.28-.22,4.737,2.019,3.454h0Z"></path><path class="cls-3" d="M264.202,110.034c-.016-11.303-.301-22.638-.053-33.938.015-.696-.391-1.382-.991-1.727-17.764-10.22-35.516-20.46-53.266-30.705-17.604-10.161-35.204-20.329-52.801-30.504-7.428-4.295-14.856-8.591-22.283-12.89-.622-.36-1.397-.36-2.019,0-11.844,6.852-23.69,13.699-35.539,20.543-13.822,7.984-27.646,15.963-41.477,23.932-6.769,3.901-13.54,7.799-20.315,11.691-.61.35-.99,1.026-.991,1.727-.002,8.725.025,17.449.04,26.174.004,2.112.007,4.224.009,6.336.002,1.423-.308,3.282.073,4.666.407,1.478,3.19,2.51,4.451,3.24,1.534.888,3.069,1.776,4.604,2.664,16.855,9.753,33.716,19.498,50.579,29.237,19.342,11.171,38.688,22.336,58.045,33.482,2.207,1.271,4.414,2.541,6.622,3.812,1.016.585,2.033,1.17,3.049,1.754,1.038.597,2.09,1.376,3.204,1.806,1.321.51,2.554-.546,3.655-1.179,1.109-.638,2.218-1.276,3.327-1.914,2.243-1.29,4.485-2.581,6.727-3.872,9.766-5.624,19.529-11.255,29.29-16.889,17.876-10.317,35.747-20.643,53.611-30.982,1.093-.632,2.347-1.125,2.449-2.571.091-1.284-.002-2.608-.003-3.894-.004-2.574-4.004-2.578-4,0,.002,1.298.003,2.596.003,3.894l.991-1.727c-11.348,6.568-22.7,13.131-34.053,19.69-13.813,7.98-27.629,15.956-41.451,23.923-6.926,3.992-13.854,7.982-20.785,11.966h2.019c-18.115-10.416-36.216-20.857-54.314-31.303-17.879-10.32-35.754-20.647-53.624-30.981-7.154-4.137-14.307-8.274-21.458-12.415l.991,1.727c.006-9.911-.031-19.823-.045-29.734-.003-2.303-.007-4.607-.006-6.91l-.991,1.727c12.766-7.334,25.521-14.688,38.274-22.046,13.574-7.832,27.145-15.67,40.713-23.513,6.115-3.535,12.23-7.07,18.344-10.608h-2.019c14.724,8.522,29.453,17.037,44.183,25.548,18.447,10.659,36.898,21.312,55.355,31.954,9.601,5.536,19.204,11.069,28.811,16.596l-.991-1.727c-.248,11.301.037,22.635.053,33.938.004,2.574,4.004,2.578,4,0Z"></path><path class="cls-3" d="M51.962,69.074c10.741,6.221,21.487,12.433,32.233,18.644,14.678,8.483,29.36,16.961,44.046,25.43,6.967,4.017,13.934,8.033,20.904,12.044,3.033,1.746,6.066,3.49,9.101,5.234,1.405.807,2.81,1.614,4.215,2.421.588.337,1.168.707,1.771,1.016,1.22.624,2.073.086,3.126-.518,13.509-7.749,26.999-15.533,40.488-23.317,12.547-7.241,25.092-14.486,37.632-21.74.904-.523,1.809-1.047,2.713-1.57,2.227-1.289.215-4.747-2.019-3.454-9.319,5.394-18.642,10.78-27.966,16.165-12.3,7.103-24.602,14.202-36.911,21.29-5.651,3.254-11.303,6.506-16.961,9.75h2.019c-15.192-8.713-30.362-17.464-45.531-26.217-16.134-9.31-32.264-18.627-48.389-27.952-6.152-3.558-12.304-7.116-18.453-10.678-2.232-1.293-4.248,2.163-2.019,3.454h0Z"></path><path class="cls-3" d="M87.256,88.207c14.637-8.455,29.272-16.912,43.906-25.371,11.885-6.87,23.77-13.741,35.652-20.615,5.083-2.94,10.165-5.881,15.247-8.823,2.227-1.289.215-4.747-2.019-3.454-9.829,5.69-19.659,11.376-29.491,17.061-13.224,7.647-26.449,15.291-39.675,22.934-8.546,4.939-17.093,9.877-25.64,14.814-2.228,1.287-.216,4.745,2.019,3.454h0Z"></path><path class="cls-3" d="M84.126,86.529c.013,11.343.062,22.686.062,34.029,0,2.574,4,2.578,4,0,0-11.343-.049-22.686-.062-34.029-.003-2.574-4.003-2.578-4,0h0Z"></path></g></g></svg>