<svg id="b" xmlns="http://www.w3.org/2000/svg" width="223.258" height="178.355" viewBox="0 0 223.258 178.355"><defs><style>.g{fill:#211715;}.g,.h,.i{stroke-width:0px;}.h{fill:#fff;}.i{fill:#fcdc4a;}</style></defs><g id="c"><g id="d"><path class="h" d="M121.639,166.634c32.281,0,54.594-25.002,54.594-54.258,0-32.734-22.793-55.276-54.596-55.276-33.029,0-54.596,22.753-54.596,55.276,0,29.456,22.43,54.258,54.598,54.258Z"></path><path class="h" d="M202.528,60.076c-5.506,0-13.35,0-21.81,0-3.306,0-5.989,2.68-5.989,5.985v.163c0,3.306,2.68,5.985,5.986,5.984,7.267-.002,14.534-.002,21.801-.002,3.303,0,5.981-2.677,5.984-5.979,0-.053,0-.107,0-.16.004-3.308-2.665-5.991-5.973-5.991Z"></path><path class="h" d="M121.638,149.061c21.923,0,37.077-16.98,37.077-36.849,0-22.231-15.48-37.541-37.079-37.541-22.431,0-37.079,15.452-37.079,37.541,0,20.005,15.233,36.849,37.08,36.849Z"></path><path class="h" d="M51.43,38.765c-.103-1.904-1.68-3.417-3.61-3.417h-14.938c-1.997,0-3.616,1.622-3.615,3.619,0,2.473,0,4.443,0,4.443v.433c6.855,0,22.016,0,22.016,0,.047,0,.098,0,.153,0,0-1.936,0-3.368,0-4.879,0-.067-.002-.133-.005-.199Z"></path><path class="h" d="M57.06,74.114c3.353,0,5.671-2.597,5.671-5.636,0-3.4-2.367-5.742-5.671-5.742-3.431,0-5.671,2.363-5.671,5.742,0,3.06,2.33,5.636,5.671,5.636Z"></path><path class="h" d="M121.637,2c-6.789,0-11.719,1.552-14.891,2.896-2.26.958-4.608,1.67-7.02,2.128-2.51.477-5.61,1.561-9.36,4.413-3.919,2.98-5.757,5.618-6.782,8.036-.796,1.88-1.753,3.68-2.869,5.389-1.345,2.059-2.24,4.212-2.554,6.582-.4,3.019-.483,5.556.206,8.689.656,2.987,2.503,5.509,5.166,7.012,1.934,1.091,6.687,3.129,13.298,3.129,2.973,0,17.145-.608,24.806-.608s21.833.608,24.806.608c6.612,0,11.365-2.037,13.298-3.129,2.663-1.503,4.509-4.026,5.166-7.012.689-3.134.606-5.67.206-8.689-.313-2.365-1.204-4.513-2.544-6.567-1.108-1.7-2.071-3.482-2.869-5.348-1.038-2.426-2.908-5.07-6.855-8.071-3.764-2.863-6.845-3.953-9.341-4.433-2.397-.462-4.729-1.176-6.976-2.129-3.172-1.344-8.102-2.896-14.891-2.896Z"></path><g id="e"><path class="i" d="M221.248,58.899c0-7.888-6.394-14.284-14.282-14.284-10.934,0-21.85.001-29.733.004-1.367,0-6.7-.029-14.442-.076-.833,1.037-1.853,1.927-3.05,2.602-1.934,1.091-6.687,3.129-13.298,3.129-2.973,0-17.145-.608-24.806-.608s-21.833.608-24.806.608c-6.612,0-11.365-2.037-13.298-3.129-1.398-.789-2.564-1.865-3.457-3.136-15.23-.097-26.695-.167-28.793-.167H13.082c-6.108,0-11.059,4.952-11.059,11.059,0,45.352,0,89.479,0,110.378,0,6.088,4.932,11.021,11.021,11.02,51.816-.007,111.079-.009,165.809-.009,10.661,0,21.15,0,31.378,0,6.088,0,11.02-4.928,11.019-11.017-.003-20.177-.003-62.57-.003-106.376ZM57.06,74.114c-3.341,0-5.671-2.576-5.671-5.636,0-3.378,2.24-5.742,5.671-5.742,3.303,0,5.671,2.341,5.671,5.742,0,3.039-2.318,5.636-5.671,5.636ZM121.639,166.634c-32.168,0-54.598-24.803-54.598-54.258,0-32.523,21.567-55.276,54.596-55.276,31.803,0,54.596,22.542,54.596,55.276,0,29.256-22.313,54.258-54.594,54.258ZM208.5,66.227c-.003,3.303-2.682,5.979-5.984,5.979-7.267,0-14.534,0-21.801.002-3.306,0-5.986-2.678-5.986-5.984v-.163c0-3.306,2.683-5.985,5.989-5.985,8.461,0,16.304,0,21.81,0,3.308,0,5.976,2.683,5.973,5.991,0,.053,0,.107,0,.16Z" style="fill: rgb(112, 218, 157);"></path></g></g><g id="f"><path class="g" d="M162.807,46.537c8.925,0,17.85.08,26.775.08h8.993c3.128,0,6.323-.189,9.443.038,4.044.294,7.724,2.771,9.689,6.281,1.027,1.833,1.516,3.867,1.54,5.961.038,3.237,0,6.476,0,9.713v94.02c0,1.847.12,3.69-.449,5.473s-1.759,3.402-3.283,4.493c-1.813,1.298-3.818,1.7-6.007,1.7h-65.025c-24.562,0-49.123,0-73.685,0-11.913,0-23.826,0-35.74,0h-17.189c-2.509,0-5.225.327-7.65-.445-1.789-.57-3.402-1.758-4.493-3.284-2.208-3.086-1.7-6.93-1.7-10.514v-95.703c0-3.146-.055-6.298,0-9.444.036-2.064.681-4.068,1.991-5.685,1.841-2.271,4.518-3.365,7.395-3.375,1.492-.005,2.983,0,4.475,0h17.769c9.29,0,18.579.007,27.869.064,5.514.034,11.027.07,16.541.106,2.574.017,2.577-3.983,0-4-12.274-.081-24.548-.17-36.823-.17-10.047,0-20.102-.127-30.149,0-4.545.057-8.788,2.386-11.173,6.28C.67,50.171.07,52.522.027,54.907c-.06,3.31,0,6.628,0,9.939v38.323c0,19.656,0,39.312,0,58.968,0,1.912-.093,3.839.263,5.728.431,2.285,1.565,4.419,3.103,6.15s3.574,2.996,5.765,3.694c2.52.803,5.227.588,7.833.588h187.943c2.813,0,5.785.285,8.539-.408,2.234-.562,4.334-1.777,5.962-3.404s2.835-3.726,3.404-5.962c.492-1.932.408-3.919.408-5.893v-97.747c0-5.34.358-10.634-2.874-15.217-2.747-3.896-6.932-6.393-11.667-6.944-3.002-.349-6.135-.105-9.154-.105h-9.513c-4.669,0-9.339.015-14.009-.003-4.408-.017-8.815-.077-13.223-.077-2.574,0-2.578,4,0,4h0Z"></path><path class="g" d="M121.637,0c-4.297.023-8.623.599-12.712,1.948-1.792.591-3.5,1.397-5.289,1.993-1.996.665-4.06.97-6.075,1.539-4.208,1.187-8.033,3.721-11.176,6.716-1.403,1.337-2.683,2.86-3.661,4.538-.984,1.689-1.635,3.549-2.6,5.253-1.181,2.086-2.517,3.995-3.281,6.295-.719,2.165-.944,4.56-.983,6.832-.073,4.333.942,8.902,4.223,11.955,4.84,4.503,12.524,5.331,18.804,5.167,6.82-.178,13.636-.476,20.459-.556,6.984-.082,13.971.21,20.95.432,2.579.082,5.182.25,7.762.119,3.893-.197,7.736-1.044,11.29-2.654,3.358-1.522,5.932-4.179,7.144-7.689,1.439-4.168,1.317-9.644-.12-13.797-.766-2.214-2.058-4.063-3.204-6.078-.99-1.741-1.662-3.645-2.693-5.358-2.244-3.727-5.854-6.748-9.578-8.915-1.638-.953-3.408-1.739-5.232-2.259-2.077-.593-4.201-.917-6.254-1.619-3.581-1.224-6.896-2.667-10.671-3.279C126.385.204,124.018.013,121.637,0c-2.574-.014-2.577,3.986,0,4,3.916.021,7.773.545,11.504,1.758,1.622.527,3.167,1.241,4.772,1.813,1.965.7,3.971,1.093,5.99,1.586,3.705.904,7.029,3.059,9.812,5.617,1.263,1.161,2.417,2.428,3.303,3.902.919,1.529,1.523,3.223,2.377,4.789,1.035,1.898,2.403,3.632,3.117,5.691.683,1.971.89,4.092.906,6.169.028,3.66-.812,7.575-4.063,9.713-4.664,3.068-10.642,3.326-16.088,3.167-6.495-.189-12.99-.454-19.488-.526s-13.057.186-19.579.395c-5.88.189-11.666.552-17.297-1.561-2.547-.956-4.928-2.535-6.073-5.18-1.567-3.622-1.321-8.726.005-12.378.722-1.988,2.06-3.675,3.058-5.522.849-1.572,1.445-3.273,2.36-4.807,1.999-3.353,5.372-6.01,8.773-7.829,3.305-1.767,7.051-2.036,10.541-3.3,3.215-1.165,6.249-2.405,9.647-2.99,2.121-.365,4.273-.495,6.424-.507C124.21,3.986,124.216-.014,121.637,0Z"></path><path class="g" d="M31.035,90.904c0,17.374-.04,34.748-.055,52.122-.005,5.46-.008,10.92-.008,16.38,0,2.574,4,2.578,4,0,0-18.913.035-37.827.055-56.74.004-3.921.008-7.841.008-11.762,0-2.574-4-2.578-4,0h0Z"></path><path class="g" d="M53.435,43.825c0-1.988.325-4.322-.177-6.261-.504-1.952-2.087-3.533-4.038-4.039-1.526-.395-3.335-.177-4.889-.177h-7.577c-1.471,0-2.994-.113-4.459.047-2.303.252-4.268,1.912-4.853,4.171-.473,1.827-.176,3.962-.176,5.843,0,2.574,4,2.578,4,0,0-1.337-.007-2.674,0-4.012.006-1.097.419-1.959,1.618-2.05,1.148-.087,2.336,0,3.486,0,3.739,0,7.48-.043,11.219,0,.73.008,1.394.238,1.716.963.29.654.13,1.564.13,2.263,0,1.083,0,2.167,0,3.25,0,2.574,4,2.578,4,0h0Z"></path><path class="g" d="M121.639,168.634c12.272-.036,24.497-3.656,34.35-11.08,9.291-7.001,16.157-16.787,19.632-27.891,3.591-11.475,3.442-24.232.036-35.735-3.175-10.72-9.481-20.378-18.342-27.242-9.194-7.123-20.504-10.851-32.062-11.487-11.702-.644-23.786,1.647-33.978,7.576-9.344,5.435-16.746,13.849-21.063,23.749-4.747,10.887-6.24,23.267-4.448,34.996,1.739,11.39,7.054,22.187,15.1,30.445,8.307,8.526,19.391,14.104,31.14,15.911,3.192.491,6.406.748,9.636.758,2.574.008,2.578-3.992,0-4-11.552-.034-22.857-3.448-32.157-10.381-8.542-6.368-14.86-15.581-18.009-25.732-3.312-10.677-3.194-22.415-.196-33.154,2.732-9.785,8.196-18.628,16.092-25.074,8.175-6.673,18.596-10.206,29.041-10.999,11.002-.834,22.277.977,32.017,6.317,9.094,4.986,16.267,12.775,20.658,22.156,4.684,10.008,6.244,21.896,4.546,32.801-1.66,10.665-6.472,20.729-14.005,28.492-7.824,8.064-18.144,13.18-29.216,14.925-2.899.457-5.839.638-8.772.647-2.573.008-2.578,4.008,0,4Z"></path><path class="g" d="M121.638,151.061c8.481-.037,16.934-2.527,23.735-7.675,6.396-4.841,11.12-11.555,13.528-19.211,4.792-15.236.203-33.523-12.597-43.46-12.605-9.786-31.749-10.751-45.521-2.798-14.047,8.112-20.092,25.025-17.721,40.621,2.489,16.374,15.582,29.529,31.972,32.002,2.19.33,4.388.511,6.603.52,2.574.011,2.578-3.989,0-4-7.697-.033-15.226-2.279-21.429-6.899-5.698-4.242-9.921-10.385-12.021-17.153-4.188-13.498-.524-29.814,10.623-38.919,11.013-8.995,28.472-9.825,40.762-3.049,12.852,7.085,18.948,22.321,16.757,36.563-1.097,7.136-4.308,13.876-9.347,19.069-5.217,5.377-12.067,8.765-19.443,9.953-1.95.314-3.93.426-5.903.435-2.573.011-2.579,4.011,0,4Z"></path><path class="g" d="M202.528,58.076c-6.611,0-13.221,0-19.832,0-3.015,0-5.836.271-7.95,2.688-1.752,2.004-2.384,4.733-1.799,7.319.606,2.677,2.704,4.862,5.282,5.729,1.44.484,2.971.397,4.467.396,1.982,0,3.964,0,5.946,0,3.881,0,7.763,0,11.644,0,3.097,0,6.02-.168,8.196-2.686,2.077-2.403,2.594-5.812,1.31-8.72s-4.135-4.637-7.264-4.724c-2.575-.072-2.573,3.928,0,4,3.7.103,5.45,4.946,2.454,7.287-.609.476-1.361.766-2.127.834-1.575.14-3.217.01-4.799.01-2.973,0-5.946,0-8.919,0-1.486,0-2.973,0-4.459,0-1.447,0-3,.166-4.436-.011-1.683-.208-3.106-1.513-3.438-3.177-.308-1.542.232-3.163,1.492-4.136.654-.504,1.438-.753,2.251-.803,1.515-.094,3.063-.005,4.582-.005,5.799,0,11.599,0,17.398,0,2.574,0,2.578-4,0-4Z"></path><path class="g" d="M57.06,76.114c3.362-.043,6.311-2.119,7.331-5.351.932-2.955-.031-6.499-2.501-8.408s-6.123-2.158-8.854-.596c-2.839,1.623-3.994,4.957-3.517,8.078.564,3.694,3.899,6.23,7.541,6.277,1.046.013,2.048-.93,2-2-.049-1.095-.879-1.986-2-2-.165-.002-.329-.015-.493-.019-.522-.012.398.106-.101-.011-.251-.059-.501-.11-.747-.191-.096-.032-.189-.068-.284-.102.479.171.031.006-.064-.043-.26-.135-.503-.293-.741-.464.434.311-.143-.152-.244-.255-.1-.103-.19-.214-.287-.319.308.335.083.12.011.005-.141-.224-.269-.451-.4-.68-.054-.094-.21-.301.024.083-.094-.154-.14-.377-.189-.55-.061-.213-.172-.5-.158-.72-.031.472.017.152.015.01-.001-.126-.012-.253-.013-.38,0-.209-.05-.579.041-.773l-.033.234c.015-.097.032-.194.051-.291.033-.166.073-.329.119-.492.032-.114.068-.226.107-.338l.048-.132c.081-.205.067-.173-.04.095-.036-.108.267-.504.325-.596.059-.093.135-.181.188-.277.132-.237-.326.346-.022.04.068-.069.459-.571.571-.555l-.195.148c.072-.053.145-.104.219-.154.075-.05.151-.097.229-.143.118-.069.241-.127.36-.193.386-.214-.303.069-.032.009.252-.056.497-.17.751-.229.096-.022.193-.038.288-.06.224-.036.196-.034-.085.006.102-.011.205-.02.307-.027.261-.017.524-.02.786-.008.135.006.328-.007.456.037-.045-.015-.457-.09-.09-.004.26.06.517.115.77.2.103.034.243.061.332.122-.435-.295-.033,0,.088.066.187.102.5.235.633.406-.227-.293-.196-.163-.089-.056.096.096.2.183.294.281.075.077.144.185.228.252.207.165-.254-.393-.02-.027.15.235.285.473.422.715.232.411-.124-.412.022.043.029.092.065.181.093.273.073.231.24.623.204.866.006-.043-.038-.471-.014-.074.009.158.023.315.026.473.003.129.002.259-.003.388-.006.143.048.667.008.138.019.253-.125.621-.2.857-.039.124-.075.301-.147.41.169-.258.075-.174-.04.045-.134.255-.29.493-.458.727.302-.422.019-.041-.052.036-.097.105-.199.207-.304.305-.075.07-.456.36-.038.056-.118.086-.236.169-.359.247-.124.078-.252.151-.382.219-.198.103-.371.155-.064.045-.289.104-.578.199-.879.263-.1.021-.605.068-.095.028-.219.017-.436.031-.656.034-1.046.014-2.049.91-2,2,.048,1.072.879,2.014,2,2Z"></path></g></g></svg>