<?xml version="1.0" encoding="UTF-8"?>
<svg id="_レイヤー_2" data-name="レイヤー 2" xmlns="http://www.w3.org/2000/svg" viewBox="0 0 163.62 135.29">
  <defs>
    <style>
      .cls-1 {
        fill: #16a34a;
      }
    </style>
  </defs>
  <g id="_レイヤー_1-2" data-name="レイヤー 1">
    <g>
      <path class="cls-1" d="M138.1,14.18c-.29-.15-.62-.27-.99-.37-.37-.1-.75-.17-1.13-.21-.38-.04-.75-.05-1.12-.02-.37.03-.69.09-.98.18-.29.1-.51.21-.66.36-.15.14-.23.3-.23.47,0,.17.06.34.19.51.13.17.33.34.6.49.3.16.63.29.99.39.36.09.73.16,1.11.19.37.03.75.03,1.12,0,.37-.04.71-.1,1.01-.2.3-.1.53-.22.7-.36.16-.14.25-.29.26-.45,0-.16-.06-.32-.2-.49-.14-.17-.35-.33-.65-.48Z"/>
      <path class="cls-1" d="M126.7,18.62c-.26-.16-.56-.28-.89-.38-.34-.09-.68-.15-1.02-.17-.34-.02-.68,0-1.01.06-.33.06-.63.16-.89.29-.26.14-.46.3-.6.48-.14.19-.21.38-.21.58,0,.2.05.4.17.6.11.2.29.39.54.55.27.18.57.31.89.4.33.09.66.14,1,.16.34.02.68-.01,1.01-.08.34-.07.64-.17.91-.31.27-.14.48-.3.63-.49.15-.18.23-.37.23-.57,0-.19-.05-.39-.17-.59-.12-.2-.32-.38-.59-.54Z"/>
      <path class="cls-1" d="M142.11,2.04c-7.42.39-18.13-.21-19.91-.3C87.91,0,74.33,14.05,66.3,18.83c-9.8,5.82-18.37,3.3-22.88,18.25-.67,2.21-.56,5.46-1.16,7.82-1.13,4.43-6.24,2.48-9.56,5.79-4.39,4.38-.23,9.28-4.34,16.95-2.78,5.18-5.24,5.8-8.69,10.56-1.6,2.22-4.17,6.94-2.32,11.59,1.16,2.9,2.2,3.16,2.9,5.21C23.2,103.73-.3,112.57,0,127.56c.06,3.03,3.01,7.42,4.6,7.71,2.9.53,5.41-10.6,15.93-23.46,2.73-3.34,9.91-11.64,15.06-10.43,1.61.38,5.68.87,7.56.34,5.5-1.55,5.06-8.14,10.98-9.47,5.23-1.17,6.28,5.16,13.9,4.21,7.81-.97,5.88-3.79,15.39-7.27,8.31-3.04,9.94-1.12,14.55-2.39,18.01-4.97,49.5-27.57,58.98-71.3,1.46-6.72,4.86-12.71,6.66-15.5-4.6.14-4.81,1.15-21.51,2.04ZM42.32,85.38c-.1.51-.26,1-.49,1.47-.23.47-.52.9-.86,1.29-.35.39-.74.74-1.2,1.03-.45.3-.94.53-1.46.68-1.58.47-2.97.02-4.11-1.32.77-1.14,1.52-2.29,2.24-3.44.11.47.29.81.54,1.03.25.22.53.29.85.19.7-.21.97-.93.83-2.16-.42-3.67-.85-7.34-1.27-11.01,1.12-.34,2.22-.72,3.31-1.11.52,3.65,1.05,7.31,1.57,10.96.07.46.11.9.12,1.3.01.41,0,.77-.07,1.08ZM102.36,22.91c.1-.19.24-.36.43-.5.19-.14.41-.25.65-.31.24-.06.49-.09.75-.08.26.01.51.06.75.15.24.09.46.21.66.38.19.16.34.34.43.54.09.2.14.4.14.61,0,.21-.06.41-.16.6-.1.19-.25.36-.45.51-.2.15-.42.26-.66.33-.24.07-.49.1-.75.09-.25-.01-.5-.06-.74-.15-.24-.09-.45-.22-.64-.39-.19-.17-.33-.35-.42-.56-.09-.2-.14-.41-.14-.62,0-.21.05-.41.15-.6ZM76.56,46.81c.03-.26.1-.51.21-.74.11-.23.25-.43.42-.6.18-.17.37-.28.57-.34.2-.06.41-.07.61-.04.21.04.4.12.58.25.18.13.34.31.47.53.13.22.22.46.27.73.05.26.06.52.02.79-.03.26-.1.51-.21.75-.11.24-.26.44-.44.62-.18.17-.38.29-.59.36-.21.07-.42.08-.62.04-.21-.04-.4-.13-.58-.26-.18-.14-.33-.32-.46-.55-.13-.23-.21-.48-.25-.74-.04-.26-.05-.53-.02-.79ZM53.53,82.23c-.62,1.12-1.72,2.11-3.32,2.9-1.6.79-2.91.98-3.85.61-.95-.36-1.54-1.28-1.77-2.72-.36-2.25-.72-4.49-1.08-6.74,1.02-.41,2.03-.85,3.03-1.31.37,1.98.74,3.96,1.11,5.94.24,1.3.9,1.71,1.97,1.19,1.06-.52,1.44-1.44,1.17-2.72-.42-1.95-.83-3.91-1.25-5.86.97-.5,1.92-1.01,2.87-1.54.52,2.16,1.03,4.32,1.55,6.48.33,1.39.2,2.65-.41,3.77ZM62.14,77.63c-.51-1.66-1.01-3.32-1.52-4.98-.15-.49-.3-.86-.45-1.13-.15-.26-.32-.44-.52-.52-.17-.07-.34-.09-.51-.05-.17.04-.34.11-.52.23-.47.31-.78.72-.93,1.25-.15.52-.14,1.11.05,1.78.5,1.79.99,3.57,1.49,5.36-.99.64-1.99,1.25-3,1.85-.85-3.4-1.71-6.8-2.56-10.19.93-.55,1.86-1.12,2.77-1.7.12.42.24.85.35,1.27.21-.83.48-1.46.8-1.92.32-.45.73-.84,1.24-1.19.53-.36,1.02-.57,1.47-.61.45-.04.87.04,1.26.26.32.17.59.43.8.78.21.35.41.78.58,1.29.69,2.05,1.37,4.11,2.06,6.16-.95.7-1.9,1.38-2.87,2.05ZM71.4,69.78c-.2.56-.5,1.11-.89,1.65-.39.54-.86,1.03-1.41,1.47-1.06.85-2.26,1.3-3.55,1.35.07-1.06.13-2.11.18-3.16.99.06,1.84-.19,2.52-.73.25-.2.43-.43.54-.69.11-.26.12-.5.04-.7-.05-.12-.1-.21-.15-.27-.06-.06-.14-.09-.24-.09-.1,0-.24.03-.42.1-.17.07-.4.17-.67.3-.91.45-1.61.58-2.09.42-.48-.16-.85-.62-1.1-1.35-.19-.54-.28-1.08-.27-1.63,0-.55.1-1.08.28-1.6.18-.52.44-1.01.78-1.49.34-.47.75-.9,1.24-1.29.79-.64,1.63-1.06,2.54-1.29,0,.94.01,1.89.01,2.84-.6.08-1.12.3-1.58.67-.24.19-.41.41-.51.65-.1.24-.11.47-.04.67.04.11.09.19.14.24.05.05.13.07.23.07.11,0,.25-.05.42-.12.18-.08.41-.19.7-.32.79-.4,1.46-.53,2-.36.54.16.97.6,1.26,1.32.22.54.34,1.09.34,1.67,0,.58-.1,1.15-.3,1.71ZM79.31,63.62c-.73-1.46-1.46-2.93-2.18-4.39-.22-.44-.42-.77-.61-.99-.19-.22-.39-.35-.59-.38-.34-.04-.66.08-.97.37-.42.38-.67.83-.75,1.35-.08.52.02,1.07.29,1.66.73,1.58,1.47,3.17,2.2,4.75-.88.79-1.77,1.57-2.67,2.35-2.12-4.9-4.23-9.8-6.35-14.7.78-.67,1.56-1.35,2.34-2.03,1.02,2.21,2.05,4.41,3.07,6.62.1-.82.27-1.47.53-1.95.26-.48.61-.93,1.07-1.35.86-.79,1.67-1.09,2.42-.91.75.18,1.4.77,1.94,1.77.96,1.8,1.92,3.6,2.88,5.39-.87.82-1.74,1.63-2.61,2.43ZM83.4,59.79c-1.55-2.79-3.09-5.58-4.64-8.37.8-.75,1.59-1.51,2.39-2.27,1.61,2.72,3.22,5.44,4.83,8.16-.86.83-1.72,1.65-2.59,2.48ZM92.58,50.92c-.9-1.28-1.8-2.57-2.69-3.85-.26-.38-.5-.66-.71-.84-.21-.19-.43-.29-.65-.3-.19-.02-.37.02-.54.1-.17.08-.33.19-.48.34-.41.4-.63.84-.67,1.33-.03.49.12,1,.46,1.52.92,1.39,1.83,2.79,2.75,4.18-.86.83-1.71,1.66-2.57,2.5-1.65-2.68-3.3-5.36-4.95-8.04.79-.76,1.58-1.52,2.38-2.29.22.33.43.66.65.99.03-.77.15-1.4.38-1.87.23-.48.56-.93,1.01-1.36.47-.45.94-.76,1.4-.91.46-.15.92-.19,1.39-.11.38.07.72.22,1.02.46.3.24.6.56.89.95,1.17,1.57,2.34,3.14,3.52,4.71-.86.83-1.72,1.66-2.58,2.49ZM107.62,36.98c-1.31-1.31-2.62-2.61-3.93-3.92-1.34,1.14-2.67,2.3-3.98,3.48,1.25,1.37,2.49,2.74,3.74,4.1-.95.86-1.9,1.73-2.85,2.61-2.91-3.42-5.83-6.85-8.74-10.27.84-.77,1.68-1.53,2.53-2.29,1.17,1.28,2.33,2.56,3.5,3.84,1.28-1.15,2.58-2.28,3.89-3.39-1.23-1.22-2.45-2.44-3.68-3.66.86-.73,1.74-1.45,2.61-2.16,3.29,3.06,6.57,6.13,9.86,9.19-.99.81-1.97,1.63-2.95,2.46ZM112.41,33.04c-2.28-2.04-4.57-4.09-6.85-6.13.85-.67,1.72-1.33,2.59-1.97,2.35,1.98,4.71,3.96,7.06,5.95-.94.7-1.87,1.42-2.8,2.15ZM117.16,29.46c-2.4-1.94-4.81-3.88-7.21-5.83.88-.63,1.77-1.24,2.67-1.84.41.31.81.62,1.22.93-.15-.53-.14-1.02.05-1.48.18-.45.56-.85,1.12-1.2.07-.04.15-.09.24-.15.09-.05.2-.11.33-.16.86.62,1.73,1.23,2.59,1.85-.56.1-1.05.29-1.49.56-.65.41-.95.86-.91,1.35.04.49.41,1,1.1,1.53,1.06.81,2.13,1.62,3.19,2.43-.98.65-1.94,1.32-2.9,2.01ZM131.74,19.76c-.09.46-.36.92-.83,1.38-.46.46-1.08.9-1.86,1.3-.76.4-1.57.71-2.41.93-.84.22-1.68.33-2.5.34-.83,0-1.62-.1-2.39-.31-.77-.21-1.46-.54-2.09-.99-.57-.4-.98-.86-1.24-1.35-.26-.5-.36-1-.3-1.5.06-.5.27-1,.65-1.47.38-.47.92-.89,1.63-1.26.7-.36,1.47-.62,2.3-.78.83-.16,1.68-.22,2.54-.19.86.03,1.7.15,2.52.37.82.21,1.57.52,2.25.91.68.4,1.16.81,1.44,1.26.28.45.38.9.29,1.36ZM143.7,15.46c-.1.36-.4.71-.91,1.06-.51.34-1.2.66-2.05.94-.84.28-1.73.49-2.66.63-.93.13-1.85.18-2.76.14-.91-.04-1.79-.16-2.64-.38-.85-.22-1.62-.53-2.32-.94-.63-.37-1.09-.77-1.38-1.2-.29-.43-.4-.85-.34-1.27.06-.42.29-.82.7-1.19.41-.37,1.01-.69,1.79-.94.77-.25,1.62-.41,2.55-.49.92-.07,1.86-.06,2.82.02.95.09,1.89.25,2.8.48.91.23,1.74.53,2.49.9.75.37,1.28.74,1.6,1.12.31.38.42.75.32,1.11Z"/>
    </g>
  </g>
</svg>